<?xml version="1.0" encoding="UTF-8"?>
<svg id="Layer_1" data-name="Layer 1" xmlns="http://www.w3.org/2000/svg" xmlns:xlink="http://www.w3.org/1999/xlink" viewBox="0 0 2005.83 1016.47">
  <defs>
    <style>
      .cls-1 {
        fill: url(#linear-gradient-2);
      }

      .cls-2 {
        fill: url(#linear-gradient);
      }
    </style>
    <linearGradient id="linear-gradient" x1="1478.03" y1="796.03" x2="1409.31" y2="650.65" gradientTransform="translate(0 1042.1015) scale(1 -1)" gradientUnits="userSpaceOnUse">
      <stop offset="0" stop-color="#a53d39"/>
      <stop offset="1" stop-color="#892574"/>
    </linearGradient>
    <linearGradient id="linear-gradient-2" x1="1339.93" y1="348.67" x2="1446.46" y2="317.09" gradientUnits="userSpaceOnUse">
      <stop offset="0" stop-color="#233454"/>
      <stop offset=".43" stop-color="#243354"/>
      <stop offset=".58" stop-color="#2b3254"/>
      <stop offset=".69" stop-color="#373155"/>
      <stop offset=".78" stop-color="#482f56"/>
      <stop offset=".86" stop-color="#5e2c57"/>
      <stop offset=".93" stop-color="#792958"/>
      <stop offset=".99" stop-color="#99255a"/>
      <stop offset="1" stop-color="#a2245b"/>
    </linearGradient>
  </defs>
  <g>
    <g>
      <path d="M373.31,520.48c0,20.39-8.8,36.87-26.4,49.44-17.6,12.57-44.82,18.86-81.65,18.86H100.54c-5.98,0-10.4-1.26-13.25-3.77-2.85-2.51-4.28-5.88-4.28-10.09,0-7.34,3.53-12.37,10.6-15.09l7.75-2.85c3.53-1.36,6.15-3.09,7.85-5.2,1.7-2.11,2.55-4.86,2.55-8.26v-194.89c0-3.4-.85-6.15-2.55-8.26-1.7-2.11-4.32-3.84-7.85-5.2l-7.75-2.85c-7.07-2.72-10.6-7.75-10.6-15.09,0-4.35,1.43-7.75,4.28-10.19,2.85-2.45,7.27-3.67,13.25-3.67h129.04c26.5,0,49.26,3.54,68.29,10.6,19.03,7.07,33.64,16.92,43.83,29.56s15.29,27.45,15.29,44.44c0,13.73-4.11,25.86-12.33,36.39-8.22,10.53-20.15,18.79-35.78,24.77-15.63,5.98-34.59,8.97-56.88,8.97l9.17-8.36c22.29,0,41.82,2.96,58.61,8.87,16.78,5.91,29.9,14.2,39.35,24.87,9.44,10.67,14.17,23,14.17,37ZM233.05,469.72h-52.6v-22.63h42.61c10.06,0,18.45-1.9,25.18-5.71,6.73-3.8,11.75-9.68,15.09-17.63,3.33-7.95,4.99-18.04,4.99-30.27,0-13.18-2.24-24.5-6.73-33.94-4.48-9.44-10.91-16.75-19.26-21.92-8.36-5.16-18.38-7.75-30.07-7.75h-5.91v208.14c0,8.29,2.31,14.41,6.93,18.35,4.62,3.94,11.21,5.91,19.77,5.91h10.4c7.61,0,14.17-1.73,19.67-5.2,5.5-3.47,9.75-8.56,12.74-15.29,2.99-6.73,4.48-14.85,4.48-24.36,0-14.95-4.18-26.64-12.54-35.06-8.36-8.43-19.95-12.64-34.76-12.64Z"/>
      <path d="M391.65,545.35c0-18.62,8.43-33.33,25.28-44.14,16.85-10.8,40.5-16.21,70.94-16.21,8.02,0,15.02.54,21,1.63,5.98,1.09,10.87,2.65,14.68,4.69l-6.93,17.74c-2.85-1.63-5.54-2.78-8.05-3.47-2.52-.68-5.27-1.02-8.26-1.02-6.66,0-11.93,2.21-15.8,6.63-3.87,4.42-5.81,10.77-5.81,19.06,0,8.7,1.9,15.32,5.71,19.88,3.8,4.56,8.83,6.83,15.09,6.83,3.94,0,7.64-.92,11.11-2.75,3.47-1.83,6.08-3.98,7.85-6.42l4.89,16.31c-6.52,9.65-16,17.12-28.44,22.42-12.44,5.3-25.72,7.95-39.85,7.95-19.03,0-34.35-4.69-45.97-14.07-11.62-9.38-17.43-21.06-17.43-35.06ZM516.21,560.84v-4.69l-6.52-.2v-131.69c0-5.16-1.4-9.31-4.18-12.44-2.79-3.12-6.56-4.69-11.31-4.69-3.54,0-6.63.85-9.28,2.55-2.65,1.7-3.98,3.98-3.98,6.83v22.22c0,11.42-3.91,20.25-11.72,26.5-7.82,6.25-18.99,9.38-33.54,9.38-12.37,0-21.58-2.62-27.62-7.85-6.05-5.23-9.07-12.54-9.07-21.92s4.08-17.94,12.23-26.91c8.15-8.97,20.42-16.44,36.8-22.42,16.38-5.98,37-8.97,61.87-8.97,28.81,0,50.22,5.27,64.22,15.8,14,10.53,21,24.91,21,43.12v97.45c0,2.58.64,4.72,1.94,6.42,1.29,1.7,3.29,2.55,6.01,2.55,2.31,0,4.18-.61,5.61-1.83s2.75-2.45,3.98-3.67c.95-.95,1.94-1.76,2.96-2.45,1.02-.68,2.21-1.02,3.57-1.02,2.31,0,3.98.85,4.99,2.55,1.02,1.7,1.53,3.84,1.53,6.42,0,5.98-2.18,12.27-6.52,18.86-4.35,6.59-10.84,12.2-19.47,16.82-8.63,4.62-19.33,6.93-32.11,6.93-15.09,0-27.42-3.19-37-9.58-9.58-6.39-14.37-14.4-14.37-24.06Z"/>
      <path d="M742.69,299.29v246.67c0,5.44.41,9.28,1.22,11.52s2.24,3.84,4.28,4.79l4.48,2.04c3.12,1.36,5.37,3.06,6.73,5.1,1.36,2.04,2.04,4.42,2.04,7.14,0,3.81-1.22,6.8-3.67,8.97-2.45,2.18-6.39,3.26-11.82,3.26h-92.96c-5.44,0-9.38-1.09-11.82-3.26-2.45-2.17-3.67-5.16-3.67-8.97,0-2.72.68-5.1,2.04-7.14,1.36-2.04,3.6-3.74,6.73-5.1l4.48-2.04c2.04-.95,3.47-2.55,4.28-4.79.82-2.24,1.22-6.08,1.22-11.52v-201.01c0-4.35-.58-7.44-1.73-9.28-1.16-1.83-2.89-3.09-5.2-3.77l-4.48-1.43c-2.85-.95-4.93-2.31-6.22-4.08-1.29-1.76-1.94-4.01-1.94-6.73,0-3.26.88-5.84,2.65-7.75,1.76-1.9,5.1-3.8,9.99-5.71l45.26-17.53c7.34-2.85,13.11-4.86,17.33-6.01,4.21-1.15,7.95-1.73,11.21-1.73,6.52,0,11.42,1.73,14.68,5.2s4.89,7.85,4.89,13.15Z"/>
      <path d="M886.21,299.29v246.67c0,5.44.41,9.28,1.22,11.52.82,2.24,2.24,3.84,4.28,4.79l4.48,2.04c3.12,1.36,5.37,3.06,6.73,5.1,1.36,2.04,2.04,4.42,2.04,7.14,0,3.81-1.22,6.8-3.67,8.97-2.45,2.18-6.39,3.26-11.82,3.26h-92.96c-5.44,0-9.38-1.09-11.82-3.26-2.45-2.17-3.67-5.16-3.67-8.97,0-2.72.68-5.1,2.04-7.14,1.36-2.04,3.6-3.74,6.73-5.1l4.48-2.04c2.04-.95,3.47-2.55,4.28-4.79s1.22-6.08,1.22-11.52v-201.01c0-4.35-.58-7.44-1.73-9.28-1.16-1.83-2.89-3.09-5.2-3.77l-4.48-1.43c-2.85-.95-4.93-2.31-6.22-4.08-1.29-1.76-1.94-4.01-1.94-6.73,0-3.26.88-5.84,2.65-7.75,1.76-1.9,5.1-3.8,9.99-5.71l45.26-17.53c7.34-2.85,13.11-4.86,17.33-6.01,4.21-1.15,7.95-1.73,11.21-1.73,6.52,0,11.42,1.73,14.68,5.2s4.89,7.85,4.89,13.15Z"/>
      <path d="M1041.34,386.13c23.1,0,43.29,4.38,60.55,13.15,17.26,8.77,30.68,21.03,40.26,36.8,9.58,15.77,14.37,34.11,14.37,55.04,0,19.3-5.03,36.76-15.09,52.39-10.06,15.63-23.95,28.03-41.69,37.2-17.74,9.17-38.29,13.76-61.67,13.76s-43.29-4.45-60.55-13.35c-17.26-8.9-30.68-21.23-40.26-37-9.58-15.76-14.37-33.97-14.37-54.63s5.03-37.34,15.09-52.9c10.06-15.56,23.95-27.86,41.69-36.9,17.74-9.04,38.29-13.56,61.67-13.56ZM1056.22,564.92c5.16-1.22,9.1-4.82,11.82-10.8,2.72-5.98,3.94-14.68,3.67-26.09-.27-11.42-2.31-25.89-6.12-43.42-3.54-16.85-7.51-30.58-11.93-41.18-4.42-10.6-9.21-18.21-14.37-22.83-5.17-4.62-10.53-6.25-16.1-4.89-5.17,1.22-9.11,4.83-11.82,10.8-2.72,5.98-3.91,14.65-3.57,25.99.34,11.35,2.34,25.86,6.01,43.52,3.53,16.72,7.54,30.41,12.03,41.08,4.48,10.67,9.28,18.28,14.37,22.83,5.1,4.56,10.43,6.22,16,4.99Z"/>
      <path d="M1339.99,522.31c-1.63-1.9-3.81-2.85-6.52-2.85-3.26,0-5.85,1.29-7.75,3.87-1.9,2.58-3.7,5.54-5.4,8.87-1.7,3.33-3.94,6.29-6.73,8.87-2.79,2.58-6.76,3.87-11.93,3.87-6.39,0-11.28-2.58-14.68-7.75-3.4-5.16-5.1-12.71-5.1-22.63v-93.37h26.09c11.55,0,19.84-1.76,24.87-5.3,5.03-3.53,7.54-7.88,7.54-13.05,0-3.4-1.26-6.01-3.77-7.85-2.52-1.83-5.88-2.75-10.09-2.75h-44.65v-41.18c0-4.89-1.12-8.63-3.36-11.21-2.24-2.58-5.34-3.87-9.28-3.87-3.54,0-7.24,1.09-11.11,3.26-3.87,2.18-8.05,5.5-12.54,9.99l-33.23,33.64c-3.54,3.54-6.42,5.98-8.66,7.34-2.24,1.36-4.66,2.04-7.24,2.04h-11.21c-4.21,0-7.64,1.05-10.29,3.16-2.65,2.11-3.98,5.13-3.98,9.07,0,2.72.75,5.03,2.24,6.93,1.49,1.9,3.74,3.47,6.73,4.69l6.52,2.65c3.12,1.36,5.4,2.92,6.83,4.69,1.43,1.77,2.14,4.62,2.14,8.56v98.06c0,21.61,6.05,37.75,18.14,48.42,12.09,10.67,29.22,16,51.37,16,14.95,0,28.27-2.79,39.96-8.36,11.69-5.57,20.86-13.08,27.52-22.53,6.66-9.44,9.99-19.94,9.99-31.5,0-4.62-.82-7.88-2.45-9.79Z"/>
      <path d="M1464.14,404.48v141.48c0,5.44.41,9.28,1.22,11.52.82,2.24,2.24,3.84,4.28,4.79l4.48,2.04c3.12,1.36,5.37,3.06,6.73,5.1,1.36,2.04,2.04,4.42,2.04,7.14,0,3.81-1.22,6.8-3.67,8.97-2.45,2.18-6.39,3.26-11.82,3.26h-92.96c-5.44,0-9.38-1.09-11.82-3.26-2.45-2.17-3.67-5.16-3.67-8.97,0-2.72.68-5.1,2.04-7.14,1.36-2.04,3.6-3.74,6.73-5.1l4.48-2.04c2.04-.95,3.47-2.55,4.28-4.79.82-2.24,1.22-6.08,1.22-11.52v-95.81c0-4.35-.58-7.44-1.73-9.28-1.16-1.83-2.89-3.09-5.2-3.77l-4.48-1.43c-2.85-.95-4.93-2.31-6.22-4.08-1.29-1.76-1.94-4.01-1.94-6.73,0-3.26.88-5.84,2.65-7.75,1.76-1.9,5.1-3.8,9.99-5.71l45.26-17.53c7.34-2.85,13.11-4.86,17.33-6.01,4.21-1.15,7.95-1.73,11.21-1.73,6.52,0,11.42,1.73,14.68,5.2,3.26,3.47,4.89,7.85,4.89,13.15Z"/>
      <path d="M1705.3,449.13c0,10.33-3.91,19.1-11.72,26.3-7.82,7.21-18.25,10.8-31.29,10.8s-22.12-3.36-28.44-10.09c-6.32-6.73-9.48-15.32-9.48-25.79v-6.52c0-8.83-1.83-15.8-5.5-20.9-3.67-5.1-8.5-7.64-14.47-7.64-4.76,0-9.21,1.77-13.35,5.3-4.15,3.54-7.51,8.94-10.09,16.21-2.58,7.27-3.87,16.48-3.87,27.62,0,15.77,2.68,28.95,8.05,39.55,5.37,10.6,12.74,18.59,22.12,23.95,9.38,5.37,20.05,8.05,32.01,8.05,8.7,0,16.54-1.05,23.55-3.16,7-2.11,13.96-6.22,20.9-12.33,3.94-3.53,6.93-5.91,8.97-7.14,2.04-1.22,4.01-1.83,5.91-1.83,2.72,0,4.72,1.36,6.01,4.08,1.29,2.72,1.94,6.05,1.94,9.99,0,12.1-4.05,23.41-12.13,33.94-8.09,10.53-19.33,18.99-33.74,25.38-14.41,6.39-31.12,9.58-50.15,9.58-20.79,0-39.45-4.11-55.96-12.33s-29.59-19.7-39.24-34.45c-9.65-14.74-14.47-31.97-14.47-51.68,0-21.06,4.65-39.89,13.96-56.47,9.31-16.58,22.49-29.63,39.55-39.14,17.05-9.51,37.2-14.27,60.44-14.27,18.62,0,34.69,2.82,48.21,8.46,13.52,5.64,23.95,13.22,31.29,22.73,7.34,9.51,11.01,20.12,11.01,31.8Z"/>
      <path d="M1826.6,412.03c-8.02,0-13.96,1.7-17.84,5.1-3.87,3.4-5.81,7.48-5.81,12.23,0,2.85.54,5.54,1.63,8.05,1.09,2.52,3.6,4.79,7.54,6.83,3.94,2.04,10.19,3.81,18.76,5.3,25.28,4.21,44.51,9.82,57.69,16.82,13.18,7,22.19,15.26,27.01,24.77,4.82,9.51,7.24,20.32,7.24,32.41,0,22.15-7.71,39.52-23.14,52.09-15.43,12.57-38.22,18.86-68.4,18.86-10.33,0-18.59-.82-24.77-2.45-6.19-1.63-11.15-3.26-14.88-4.89-3.74-1.63-7.1-2.45-10.09-2.45-3.26,0-5.98.82-8.15,2.45-2.18,1.63-4.35,3.26-6.52,4.89-2.18,1.63-4.96,2.45-8.36,2.45s-5.95-.99-7.64-2.96c-1.7-1.97-3.3-5.47-4.79-10.5l-10.6-36.08c-2.18-7.2-2.79-12.88-1.83-17.02.95-4.14,3.53-7.03,7.75-8.66,4.35-1.63,8.15-1.7,11.42-.2,3.26,1.5,6.39,4.48,9.38,8.97,6.25,9.11,12.74,16.65,19.47,22.63,6.73,5.98,13.79,10.47,21.2,13.45,7.41,2.99,15.05,4.48,22.93,4.48,9.1,0,15.93-1.7,20.49-5.1,4.55-3.4,6.83-7.95,6.83-13.66,0-3.53-.92-6.59-2.75-9.17-1.83-2.58-5.57-4.92-11.21-7.03-5.64-2.11-14.17-4.18-25.58-6.22-19.71-3.53-35.37-8.59-46.99-15.19-11.62-6.59-19.95-14.74-24.97-24.46-5.03-9.72-7.54-21.03-7.54-33.94,0-13.73,3.7-25.65,11.11-35.78,7.41-10.12,17.53-17.97,30.38-23.55,12.84-5.57,27.49-8.36,43.93-8.36,10.73,0,19.19.85,25.38,2.55,6.18,1.7,11.21,3.4,15.09,5.1,3.87,1.7,7.71,2.55,11.52,2.55s6.76-.85,9.28-2.55c2.51-1.7,4.99-3.4,7.44-5.1,2.45-1.7,5.3-2.55,8.56-2.55,2.99,0,5.5,1.09,7.54,3.26,2.04,2.18,3.53,5.91,4.48,11.21l6.32,34.86c1.22,6.93,1.33,12.13.31,15.6s-3.5,6.01-7.44,7.64c-4.21,1.77-7.95,1.73-11.21-.1-3.26-1.83-6.59-5.13-9.99-9.89-9.51-13.73-19.47-23.27-29.87-28.64-10.4-5.37-20.49-8.05-30.27-8.05Z"/>
    </g>
    <g>
      <path class="cls-2" d="M1520.65,271.76l-80.82,81.27-7.83,7.89c-12.94,12.93-33.95,12.94-46.96.02l-10.93-10.85,34.33-34.53,54.23-54.54c12.93-13.03,33.99-13.09,47.02-.14l10.97,10.87h0Z"/>
      <path class="cls-1" d="M1449.8,342.99c.06-.07-9.14,1.93-27.06-13.21l-15.91-15.82c-2.7-3.07-5-5.25-6.96-6.69-8.23-6.96-18.38-10.45-28.54-10.45-11.36,0-22.72,4.37-31.36,13.08-1.72,1.72-1.72,4.55.03,6.28l34.09,33.91s10.93,10.84,10.93,10.85c5.62,5.57,12.94,9.44,20.86,10.28,8.03.84,15.82-1.62,22.08-6.68,3.52-2.84,6.64-6.2,9.86-9.37,2.82-2.77,5.64-5.55,8.4-8.38,1.21-1.24,2.44-2.47,3.56-3.79h.01Z"/>
    </g>
  </g>
  <g>
    <path d="M299.22,759.73l11.7-73.3h-22.92l2.27-13.85h60.64l-2.27,13.85h-22.8l-11.58,73.3h-15.04Z"/>
    <path d="M360.7,759.73l13.85-87.15h14.92l-5.61,35.34h23.4l5.61-35.34h14.92l-13.85,87.15h-14.92l5.97-38.32h-23.28l-6.09,38.32h-14.92Z"/>
    <path d="M442.59,759.73l13.85-87.15h52.29l-2.15,13.01h-37.48l-3.7,22.68h33.43l-2.03,12.89h-33.43l-4.06,25.55h37.6l-2.03,13.01h-52.29Z"/>
    <path d="M629.77,760.93c-8.44,0-14.78-2.35-19.04-7.04-4.26-4.69-5.79-10.94-4.6-18.74l5.97-37.96c1.35-8.2,4.79-14.54,10.33-19.04,5.53-4.5,12.71-6.74,21.55-6.74,5.41,0,10.03,1.09,13.85,3.28,3.82,2.19,6.58,5.21,8.3,9.07,1.71,3.86,2.17,8.34,1.37,13.43h-14.92c.64-3.98.02-7.08-1.85-9.31-1.87-2.23-4.8-3.34-8.77-3.34s-7.28,1.11-9.91,3.34c-2.63,2.23-4.26,5.33-4.89,9.31l-6.09,37.96c-.56,3.98.1,7.08,1.97,9.31,1.87,2.23,4.83,3.34,8.89,3.34s7.26-1.11,9.85-3.34c2.58-2.23,4.2-5.33,4.83-9.31h14.92c-1.27,8.2-4.7,14.54-10.27,19.04-5.57,4.5-12.73,6.74-21.49,6.74Z"/>
    <path d="M684.56,759.73l2.15-13.13h17.55l9.55-60.88h-17.43l2.03-13.13h50.14l-2.15,13.13h-17.55l-9.55,60.88h17.43l-2.03,13.13h-50.14Z"/>
    <path d="M780.54,759.73l-8.12-87.15h15.16l4.18,56.82c.24,2.79.44,5.79.6,9.01.16,3.22.24,5.83.24,7.82.56-1.99,1.37-4.6,2.45-7.82,1.07-3.22,2.17-6.27,3.28-9.13l21.97-56.7h15.4l-35.81,87.15h-19.34Z"/>
    <path d="M845.72,759.73l2.15-13.13h17.55l9.55-60.88h-17.43l2.03-13.13h50.14l-2.15,13.13h-17.55l-9.55,60.88h17.43l-2.03,13.13h-50.14Z"/>
    <path d="M952.08,760.93c-8.44,0-14.78-2.35-19.04-7.04-4.26-4.69-5.79-10.94-4.6-18.74l5.97-37.96c1.35-8.2,4.79-14.54,10.33-19.04,5.53-4.5,12.71-6.74,21.55-6.74,5.41,0,10.03,1.09,13.85,3.28,3.82,2.19,6.58,5.21,8.3,9.07,1.71,3.86,2.17,8.34,1.37,13.43h-14.92c.64-3.98.02-7.08-1.85-9.31-1.87-2.23-4.8-3.34-8.77-3.34s-7.28,1.11-9.91,3.34c-2.63,2.23-4.26,5.33-4.89,9.31l-6.09,37.96c-.56,3.98.1,7.08,1.97,9.31,1.87,2.23,4.83,3.34,8.89,3.34s7.26-1.11,9.85-3.34c2.58-2.23,4.2-5.33,4.83-9.31h14.92c-1.27,8.2-4.7,14.54-10.27,19.04-5.57,4.5-12.73,6.74-21.49,6.74Z"/>
    <path d="M1085.66,759.73l13.85-87.15h25.9c5.89,0,10.82,1.14,14.8,3.4,3.98,2.27,6.84,5.43,8.59,9.49,1.75,4.06,2.19,8.83,1.31,14.33l-5.13,32.59c-.88,5.49-2.85,10.29-5.91,14.39-3.07,4.1-6.94,7.28-11.64,9.55-4.7,2.27-9.99,3.4-15.88,3.4h-25.9ZM1102.73,746h10.98c4.38,0,8.02-1.21,10.92-3.64,2.9-2.43,4.67-5.75,5.31-9.97l5.25-32.59c.64-4.14-.14-7.42-2.33-9.85-2.19-2.43-5.43-3.64-9.73-3.64h-10.98l-9.43,59.69Z"/>
    <path d="M1161.47,759.73l35.81-87.15h19.22l8.24,87.15h-14.8l-1.43-21.13h-23.16l-8.12,21.13h-15.76ZM1189.88,726.43h17.79l-1.55-23.4c-.32-3.9-.56-7.42-.72-10.56-.16-3.14-.24-5.43-.24-6.86-.48,1.43-1.25,3.72-2.33,6.86-1.07,3.14-2.33,6.63-3.76,10.45l-9.19,23.52Z"/>
    <path d="M1266.16,759.73l11.7-73.3h-22.92l2.27-13.85h60.64l-2.27,13.85h-22.8l-11.58,73.3h-15.04Z"/>
    <path d="M1322.62,759.73l35.81-87.15h19.22l8.24,87.15h-14.8l-1.43-21.13h-23.16l-8.12,21.13h-15.76ZM1351.03,726.43h17.79l-1.55-23.4c-.32-3.9-.56-7.42-.72-10.56-.16-3.14-.24-5.43-.24-6.86-.48,1.43-1.25,3.72-2.33,6.86-1.07,3.14-2.33,6.63-3.76,10.45l-9.19,23.52Z"/>
    <path d="M1483.78,759.73l35.81-87.15h19.22l8.24,87.15h-14.8l-1.43-21.13h-23.16l-8.12,21.13h-15.76ZM1512.19,726.43h17.79l-1.55-23.4c-.32-3.9-.56-7.42-.72-10.56-.16-3.14-.24-5.43-.24-6.86-.48,1.43-1.25,3.72-2.33,6.86-1.07,3.14-2.33,6.63-3.76,10.45l-9.19,23.52Z"/>
    <path d="M1569.37,759.73l13.85-87.15h29.01c5.81,0,10.7,1.12,14.68,3.34,3.98,2.23,6.84,5.35,8.6,9.37,1.75,4.02,2.19,8.74,1.31,14.15-.88,5.41-2.83,10.13-5.85,14.15-3.03,4.02-6.88,7.14-11.58,9.37-4.7,2.23-9.95,3.34-15.76,3.34h-14.09l-5.25,33.43h-14.92ZM1591.69,712.82h14.09c4.22,0,7.78-1.21,10.68-3.64,2.9-2.43,4.67-5.67,5.31-9.73.64-4.06-.12-7.3-2.27-9.73-2.15-2.43-5.29-3.64-9.43-3.64h-14.09l-4.3,26.74Z"/>
    <path d="M1649.95,759.73l13.85-87.15h29.01c5.81,0,10.7,1.12,14.68,3.34,3.98,2.23,6.84,5.35,8.6,9.37,1.75,4.02,2.19,8.74,1.31,14.15-.88,5.41-2.83,10.13-5.85,14.15-3.03,4.02-6.88,7.14-11.58,9.37-4.7,2.23-9.95,3.34-15.76,3.34h-14.09l-5.25,33.43h-14.92ZM1672.27,712.82h14.09c4.22,0,7.78-1.21,10.68-3.64,2.9-2.43,4.67-5.67,5.31-9.73.64-4.06-.12-7.3-2.27-9.73-2.15-2.43-5.29-3.64-9.43-3.64h-14.09l-4.3,26.74Z"/>
  </g>
</svg>